<?xml version="1.0" encoding="utf-8"?>
<!-- Generator: Adobe Illustrator 16.0.0, SVG Export Plug-In . SVG Version: 6.00 Build 0)  -->
<!DOCTYPE svg PUBLIC "-//W3C//DTD SVG 1.0//EN" "http://www.w3.org/TR/2001/REC-SVG-20010904/DTD/svg10.dtd">
<svg version="1.0" id="Layer_1" xmlns="http://www.w3.org/2000/svg" xmlns:xlink="http://www.w3.org/1999/xlink" x="0px" y="0px"
	 width="800px" height="800px" viewBox="0 0 800 800" enable-background="new 0 0 800 800" xml:space="preserve">
<g>
	<path fill-rule="evenodd" clip-rule="evenodd" fill="#008837" d="M516.145,346.65c0.164-2.116-0.489-8.617-0.489-8.617
		c4.909-0.636,10.391-1.036,15.464-1.036c5.276,0,10.498,0.349,15.643,1.041c2.894,0.388,5.772,0.883,8.614,1.484
		c21.757,4.611,41.748,15.422,57.845,31.546c21.931,21.969,34.012,51.182,34.012,82.253s-12.081,60.284-34.012,82.261
		c-21.93,21.967-51.087,34.072-82.102,34.072c-31.016,0-60.173-12.105-82.103-34.072c-21.931-21.977-34.006-51.189-34.006-82.261
		c0-53.404,36.113-98.525,85.16-112.129l0.397,8.059l-0.816,8.293l-0.475,0.194c-14.627,4.874-28.023,13.129-39.247,24.366
		c-18.985,19.026-29.443,44.321-29.443,71.217c0,26.906,10.458,52.2,29.443,71.228c18.99,19.016,44.238,29.499,71.089,29.499
		c55.436,0,100.531-45.188,100.531-100.727c0-26.896-10.458-52.19-29.443-71.217c-18.99-19.021-44.238-29.498-71.088-29.498
		c-5.119,0-10.177,0.38-15.147,1.128C515.972,353.734,515.981,348.764,516.145,346.65L516.145,346.65z"/>
	<path fill-rule="evenodd" clip-rule="evenodd" d="M399.999,230.346c-64.022,0-116.108,52.185-116.108,116.328
		c0,31.072,12.076,60.286,34.008,82.253c16.694,16.729,37.576,27.732,60.277,32.04c2.559,0.479,5.139,0.878,7.742,1.194
		c2.603,0.306,5.224,0.541,7.862,0.673c2.063,0.113,4.139,0.164,6.219,0.164c31.017,0,60.174-12.096,82.105-34.071
		c21.93-21.967,34.006-51.181,34.006-82.253c0-31.071-12.076-60.284-34.006-82.257C460.173,242.444,431.016,230.346,399.999,230.346
		L399.999,230.346z M500.532,346.674c0,55.539-45.101,100.718-100.534,100.718c-2.202,0-4.396-0.072-6.578-0.205
		c-3.044-0.203-6.065-0.53-9.049-1c-2.317-0.357-3.89-0.489-6.163-1.011c-18.25-4.164-35.732-13.698-49.296-27.284
		c-18.985-19.025-29.442-44.314-29.442-71.218c0-26.901,10.457-52.195,29.442-71.22c18.988-19.023,44.236-29.498,71.086-29.498
		c26.853,0,52.1,10.475,71.086,29.498C490.075,294.479,500.532,319.772,500.532,346.674L500.532,346.674z"/>
	<path fill-rule="evenodd" clip-rule="evenodd" fill="#FFFF00" d="M385.513,462.079c-3.246-0.479-7.312-0.97-7.312-0.97
		c-3.976,51.915-47.413,92.938-100.233,92.938c-26.85,0-52.095-10.483-71.083-29.499c-18.989-19.027-29.446-44.321-29.446-71.228
		c0-26.896,10.457-52.19,29.446-71.217c18.988-19.021,44.233-29.498,71.083-29.498c26.853,0,52.101,10.478,71.086,29.498
		c16.976,17.006,27.131,39.023,29.096,62.725c0,0,2.493,0.99,6.875,1.48c4.383,0.489,8.893,0.807,8.893,0.807
		c-1.498-28.733-13.384-55.549-33.847-76.048c-21.931-21.971-51.088-34.071-82.103-34.071c-64.022,0-116.107,52.182-116.107,116.324
		c0,31.071,12.078,60.284,34.008,82.261c21.931,21.967,51.088,34.072,82.1,34.072c31.015,0,60.172-12.105,82.103-34.072
		c19.7-19.74,31.448-45.311,33.635-72.829C393.706,462.753,388.758,462.569,385.513,462.079L385.513,462.079z"/>
	<path fill-rule="evenodd" clip-rule="evenodd" fill="#00A0C6" d="M161.86,453.321l0.511-7.563
		c-5.879,1.071-11.933,1.633-18.115,1.633c-26.853,0-52.101-10.474-71.089-29.5c-18.985-19.025-29.442-44.314-29.442-71.218
		c0-26.901,10.457-52.195,29.442-71.22c18.989-19.023,44.236-29.498,71.089-29.498c26.852,0,52.095,10.475,71.086,29.498
		c18.988,19.024,29.445,44.318,29.445,71.22c0,43.771-28.039,81.109-67.043,94.961l-0.429,9.063l0.429,7.421
		c18.182-5.451,34.814-15.361,48.615-29.192c21.93-21.967,34.005-51.181,34.005-82.253c0-31.071-12.076-60.284-34.005-82.257
		c-21.933-21.973-51.09-34.071-82.102-34.071c-64.023,0-116.113,52.185-116.113,116.328c0,31.072,12.081,60.286,34.01,82.253
		c21.928,21.976,51.088,34.071,82.103,34.071c6.136,0,12.205-0.47,18.155-1.398L161.86,453.321L161.86,453.321z"/>
	<path fill-rule="evenodd" clip-rule="evenodd" fill="#FF0000" d="M548.491,354.291l-8.655-1.086
		c1.47,28.788,13.315,55.194,33.812,75.722c21.931,21.976,51.088,34.071,82.097,34.071c31.015,0,60.172-12.096,82.107-34.071
		c21.927-21.967,34.006-51.181,34.006-82.253c0-31.071-12.079-60.284-34.006-82.257c-21.936-21.973-51.093-34.071-82.107-34.071
		c-60.901,0-111.009,47.229-115.74,107.052l8.487,1.069l6.972,1.087c1.675-24.223,11.897-46.765,29.198-64.1
		c18.99-19.023,44.233-29.498,71.083-29.498c26.856,0,52.099,10.475,71.089,29.498c18.991,19.024,29.448,44.318,29.448,71.22
		c0,55.539-45.101,100.718-100.537,100.718c-8.451,0-16.75-1.042-24.747-3.053c-17.383-4.389-33.327-13.412-46.336-26.447
		c-16.822-16.853-26.947-38.624-29.04-62.083L548.491,354.291L548.491,354.291z"/>
</g>
</svg>
